<?xml version="1.0" encoding="iso-8859-1"?>
<!-- Generator: Adobe Illustrator 19.0.0, SVG Export Plug-In . SVG Version: 6.00 Build 0)  -->
<svg version="1.1" id="Capa_1" xmlns="http://www.w3.org/2000/svg" xmlns:xlink="http://www.w3.org/1999/xlink" x="0px" y="0px"
	 viewBox="0 0 512.002 512.002" style="enable-background:new 0 0 512.002 512.002;" xml:space="preserve">
<g>
	<polygon style="fill:#E1524A;" points="210.456,276.87 205.759,281.651 205.759,272.257 	"/>
	<polygon style="fill:#E1524A;" points="227.063,260.264 222.366,265.044 217.669,260.515 	"/>
</g>
<polygon style="fill:#FEDC6E;" points="373.504,75.585 390.119,58.718 440.636,58.718 406.936,92.225 "/>
<path style="fill:#F09221;" d="M370.183,94.162c-0.654-1.166-1.384-2.281-2.181-3.355l-4.085-5.77l9.268-9.226l5.653,2.432
	l28.131,13.973l-25.22,25.212L370.183,94.162z"/>
<g>
	<path style="fill:#35D4B6;" d="M350.842,503.611c-8.949,0.017-17.68-2.759-24.969-7.951l-9.318-6.634
		c-15.894-11.373-37.457-10.61-52.504,1.87l-1.954,1.619c-13.764,11.465-33.205,13.193-48.772,4.328l-17.102-9.813
		c-6.517-3.69-13.889-5.628-21.379-5.619c-3.976,0.008-7.926,0.579-11.742,1.677c-3.841,1.107-7.817,1.677-11.818,1.677
		c-19.148-0.092-35.965-12.765-41.324-31.15l-4.772-17.471h368.88l-12.665,21.094c-7.8,12.9-21.748,20.792-36.82,20.842h-6.207
		c-7.49,0.017-14.845,1.979-21.346,5.695l-24.919,14.174C365.645,501.666,358.306,503.611,350.842,503.611z"/>
	<path style="fill:#35D4B6;" d="M200.391,479.758c-12.027-6.819-26.286-8.538-39.588-4.781c-18.36,5.225-37.491-5.393-42.775-23.736
		l-1.845-6.71h343.039l-5.032,8.387c-6.265,10.375-17.487,16.733-29.607,16.775h-6.207c-8.941,0.017-17.731,2.357-25.497,6.794
		l-24.91,14.174c-11.709,6.693-26.244,5.972-37.239-1.845l-9.31-6.626c-18.997-13.587-44.771-12.656-62.737,2.265l-1.929,1.594
		c-11.071,9.234-26.713,10.635-39.252,3.523L200.391,479.758z"/>
</g>
<g>
	<path style="fill:#E1524A;" d="M285.103,202.224l-17.529,17.529c-2.315-6.215-5.418-12.103-9.226-17.529H285.103z"/>
	<path style="fill:#E1524A;" d="M239.727,183.52c3.313-34.514,33.985-59.81,68.507-56.497c13.462,1.292,26.151,6.903,36.166,15.986
		l-29.523,29.523v-29.02h-16.775v30.11l-19.207-19.207l-11.91,11.826l19.291,19.207h-30.11v14.007
		C251.503,193.358,245.968,187.991,239.727,183.52z"/>
	<path style="fill:#E1524A;" d="M169.862,213.127l-11.91,11.826l19.291,19.207h-30.11v16.775h29.272l-18.536,18.284l11.742,11.91
		l19.375-19.039l-0.084,21.471h4.948l-15.852,15.852c-28.081-6.894-47.782-32.14-47.64-61.059c0.034-4.596,0.537-9.176,1.51-13.671
		l0.335-0.084l-0.168-0.587c7.901-33.826,41.735-54.844,75.569-46.943c22.973,5.368,41.005,23.132,46.717,46.021l-15.181,15.18
		l-0.084-5.032l-21.22,0.503l19.039-18.704l-11.742-11.994l-19.291,18.955v-29.775h-16.775v30.11L169.862,213.127z"/>
</g>
<path style="fill:#FEDC6E;" d="M12.718,436.144l86.12-86.011l5.443,2.827c3.749,2.005,7.825,3.321,12.036,3.908l23.258,2.827
	l-76.483,76.45L12.718,436.144L12.718,436.144z"/>
<g>
	<path style="fill:#35D4B6;" d="M116.301,356.818c-19.71-2.399-33.742-20.331-31.343-40.041c0.034-0.294,0.075-0.579,0.117-0.872
		l1.585-11.189c1.057-7.255-0.143-14.669-3.439-21.22c-8.89-17.865-1.619-39.554,16.246-48.445c2.348-1.166,4.823-2.08,7.364-2.717
		l17.026-4.261l-1.325,11.994c-0.335,2.759-0.512,5.527-0.537,8.303c-0.201,29.565,18.024,56.119,45.685,66.561l12.094,4.621
		l-40.259,40.259L116.301,356.818z"/>
	<path style="fill:#35D4B6;" d="M113.868,202.744c-4.839-14.703,3.103-30.555,17.781-35.486l9.167-3.019
		c9.075-3.028,15.961-10.509,18.217-19.811c2.927-11.18,12.338-19.467,23.795-20.968l33.113-4.194
		c9.31-1.132,17.42-6.869,21.606-15.256l6.71-13.344c6.643-13.243,22.453-19.022,36.065-13.168l21.295,9.142
		c3.447,1.459,7.154,2.214,10.903,2.206c5.099,0.008,10.115-1.359,14.502-3.959l3.581-2.214c4.37-2.625,9.369-4.017,14.468-4.034
		c2.65,0,5.284,0.369,7.834,1.099c7.481,2.197,13.722,7.381,17.244,14.334l11.658,23.359l-25.313,25.33l-5.93-5.485
		c-28.852-26.68-73.875-24.927-100.555,3.934c-9.109,9.847-15.24,22.067-17.706,35.243l-1.912,10.157l-9.545-3.967
		c-32.954-13.856-71.065-1.099-89.031,29.808l-9.285,15.776L113.868,202.744z"/>
</g>
<path style="fill:#F09221;" d="M239.224,8.394L348.41,62.962l-3.648,15.885c-4.94,0-9.788,1.317-14.049,3.816l-3.766,2.231
	c-4.345,2.617-9.327,3.992-14.401,3.984c-3.774,0.008-7.507-0.746-10.979-2.214l-21.245-9.176c-13.629-5.787-29.406,0-36.065,13.227
	l-6.668,13.294c-4.227,8.37-12.321,14.107-21.614,15.315l-34.388,4.278L239.224,8.394z"/>
<polygon style="fill:#FEDC6E;" points="63.058,436.144 305.953,193.249 306.666,193.249 307.044,192.335 308.36,190.926 
	440.485,58.718 499.263,58.718 121.836,436.144 "/>
<polygon style="fill:#FFCC02;" points="121.769,436.144 499.229,58.684 499.229,436.144 "/>
<rect id="SVGCleanerId_0" x="448.89" y="201.29" width="16.775" height="16.775"/>
<rect id="SVGCleanerId_1" x="440.5" y="394.2" width="16.775" height="16.775"/>
<rect id="SVGCleanerId_2" x="423.73" y="285.17" width="16.775" height="16.775"/>
<rect id="SVGCleanerId_3" x="381.81" y="243.23" width="16.775" height="16.775"/>
<rect id="SVGCleanerId_4" x="365.03" y="369.04" width="16.775" height="16.775"/>
<rect id="SVGCleanerId_5" x="297.94" y="310.33" width="16.775" height="16.775"/>
<rect id="SVGCleanerId_6" x="272.77" y="394.2" width="16.775" height="16.775"/>
<rect id="SVGCleanerId_7" x="205.68" y="385.81" width="16.775" height="16.775"/>
<path d="M502.441,50.968c-1.023-0.394-2.114-0.587-3.212-0.562v-0.075H390.195c-2.223,0-4.361,0.881-5.93,2.457l-12.522,12.497
	L242.973,0.888c-4.143-2.072-9.184-0.394-11.256,3.749c0,0,0,0,0,0.008l-55.876,111.752c-12.279,3.716-21.715,13.579-24.902,26
	c-1.61,6.517-6.467,11.751-12.841,13.856l-9.142,3.112c-19.056,6.383-29.355,26.973-23.023,46.046l5.695,17.093l-6.919,1.728
	c-23.828,5.93-38.33,30.043-32.408,53.871c0.788,3.154,1.912,6.215,3.372,9.125c2.525,5.032,3.447,10.727,2.642,16.305
	l-1.594,11.189c-1.719,11.818,1.417,23.828,8.689,33.297c0.52,0.688,1.174,1.208,1.736,1.854L6.839,430.215
	c-3.271,3.279-3.271,8.589,0,11.86c1.568,1.568,3.707,2.457,5.93,2.457h85.927l3.237,11.323c7.809,27.25,36.225,43.01,63.475,35.227
	c8.958-2.55,18.569-1.392,26.663,3.212l17.093,9.788c18.62,10.568,41.844,8.53,58.333-5.133l1.921-1.577
	c12.078-10.065,29.422-10.719,42.221-1.585l9.327,6.659c16.33,11.642,37.936,12.732,55.356,2.801l24.91-14.258
	c5.225-2.969,11.13-4.529,17.144-4.521h6.207c18.024-0.059,34.715-9.503,44.033-24.935l10.199-17.001h20.415
	c4.63,0,8.387-3.758,8.387-8.387V58.718C507.625,55.321,505.578,52.268,502.441,50.968z M393.667,67.105h26.604l-14.98,14.954
	l-17.714-8.865L393.667,67.105z M375.098,85.7l17.739,8.865l-8.706,8.706l-6.425-12.858c-0.839-1.56-1.795-3.053-2.852-4.47
	L375.098,85.7z M242.973,19.65l101.679,50.81c-6.425,0.025-12.732,1.761-18.267,5.032l-3.707,2.223
	c-5.41,3.229-12.044,3.674-17.84,1.208l-21.245-9.117c-17.714-7.557-38.246-0.034-46.885,17.177l-6.634,13.277
	c-2.919,5.871-8.589,9.889-15.097,10.702l-18.771,2.348L242.973,19.65z M134.258,175.242l9.15-3.061
	c11.826-3.9,20.817-13.604,23.803-25.699c2.005-7.867,8.605-13.705,16.657-14.728l33.163-4.143
	c12.078-1.501,22.604-8.949,28.047-19.844l6.634-13.277c4.672-9.251,15.709-13.302,25.254-9.268l21.253,9.109
	c10.744,4.588,23.04,3.757,33.071-2.239l3.707-2.223c9.301-5.586,21.371-2.575,26.948,6.727c0.26,0.428,0.503,0.872,0.73,1.325
	l8.924,17.831l-15.34,15.34c-32.274-29.825-82.614-27.846-112.44,4.428c-10.165,10.996-17.018,24.642-19.777,39.361
	c-36.828-15.449-79.402-1.183-99.49,33.331l-2.709-8.144C118.431,189.786,123.983,178.681,134.258,175.242z M298.103,143.53v30.093
	l-19.232-19.232l-11.868,11.86l19.19,19.215h-30.026v13.948c-4.688-6.081-10.232-11.449-16.464-15.936
	c3.347-34.53,34.044-59.81,68.574-56.463c13.436,1.3,26.093,6.894,36.099,15.953L314.878,172.5v-28.97H298.103z M285.136,202.241
	l-17.521,17.513c-2.357-6.207-5.485-12.094-9.301-17.521L285.136,202.241z M217.854,243.716l19.031-18.72l-11.742-11.96L205.852,232
	v-29.758h-16.775v30.093l-19.232-19.232l-11.868,11.86l19.232,19.232h-30.077v16.775h29.272l-18.536,18.225l11.742,11.96
	l19.366-19.047l-0.076,21.455h4.932l-15.852,15.852c-33.155-8.211-53.645-41.425-46.113-74.739l0.319-0.076l-0.143-0.595
	c8.001-33.809,41.903-54.727,75.703-46.717c22.83,5.401,40.754,23.065,46.499,45.811l-15.097,15.097l-0.109-4.957L217.854,243.716z
	 M227.079,260.289l-4.73,4.73l-4.663-4.512L227.079,260.289z M210.489,276.879l-4.772,4.772v-9.36L210.489,276.879z M90.325,255.76
	c3.497-7.649,10.291-13.277,18.452-15.298l5.393-1.35c-0.369,3.061-0.562,6.139-0.579,9.226
	c-0.109,32.995,20.23,62.611,51.062,74.361l-28.173,28.198l-19.123-2.39c-15.173-1.879-25.942-15.701-24.063-30.865
	c0.025-0.176,0.042-0.352,0.067-0.537l1.602-11.189c1.283-8.958-0.193-18.091-4.252-26.185
	C86.937,272.215,86.794,263.392,90.325,255.76z M33.015,427.757l67.358-67.358c4.647,2.449,9.696,4.059,14.904,4.747l6.181,0.772
	L59.62,427.757H33.015L33.015,427.757z M83.339,427.757l59.197-59.197l3.355,0.419l0.545-4.353l163.006-162.973
	c0.084,0,0.168,0,0.252-0.05c2.114-0.889,3.766-2.608,4.563-4.764L443.991,67.105h34.992L118.33,427.757H83.339z M454.232,452.919
	c-6.274,10.383-17.513,16.741-29.649,16.775h-6.207c-8.932,0-17.714,2.332-25.472,6.769l-24.91,14.258
	c-11.725,6.676-26.261,5.938-37.256-1.887l-9.318-6.685c-18.997-13.562-44.763-12.606-62.703,2.332l-1.937,1.602
	c-11.105,9.209-26.747,10.585-39.286,3.464l-17.102-9.788c-12.027-6.81-26.277-8.53-39.588-4.789
	c-18.351,5.25-37.474-5.368-42.725-23.719c0-0.008,0-0.008-0.008-0.017l-1.921-6.71h343.106L454.232,452.919z M490.842,427.757
	H142.049L490.842,78.965V427.757z"/>
<g>
	<rect id="SVGCleanerId_0_1_" x="448.89" y="201.29" width="16.775" height="16.775"/>
</g>
<g>
	<rect id="SVGCleanerId_3_1_" x="381.81" y="243.23" width="16.775" height="16.775"/>
</g>
<g>
	<rect id="SVGCleanerId_2_1_" x="423.73" y="285.17" width="16.775" height="16.775"/>
</g>
<g>
	<rect id="SVGCleanerId_5_1_" x="297.94" y="310.33" width="16.775" height="16.775"/>
</g>
<g>
	<rect id="SVGCleanerId_4_1_" x="365.03" y="369.04" width="16.775" height="16.775"/>
</g>
<g>
	<rect id="SVGCleanerId_1_1_" x="440.5" y="394.2" width="16.775" height="16.775"/>
</g>
<g>
	<rect id="SVGCleanerId_7_1_" x="205.68" y="385.81" width="16.775" height="16.775"/>
</g>
<g>
	<rect id="SVGCleanerId_6_1_" x="272.77" y="394.2" width="16.775" height="16.775"/>
</g>
<g>
</g>
<g>
</g>
<g>
</g>
<g>
</g>
<g>
</g>
<g>
</g>
<g>
</g>
<g>
</g>
<g>
</g>
<g>
</g>
<g>
</g>
<g>
</g>
<g>
</g>
<g>
</g>
<g>
</g>
</svg>
