<svg id="Layer_1" enable-background="new 0 0 511.773 511.773" height="512" viewBox="0 0 511.773 511.773" width="512" xmlns="http://www.w3.org/2000/svg"><g><path d="m383.544 136.405c-3.357-26.958-26.397-47.893-54.249-47.893h-146.818c-27.852 0-50.891 20.935-54.249 47.893-15.223 3.167-26.697 16.685-26.697 32.833v14.737c0 9.991 8.128 18.119 18.119 18.119h8.842l7.28 74.072c-10.037.589-17.827 9.733-16.49 19.79l13.932 119.068c.006.052.013.104.02.155 1.195 8.647 8.729 15.168 17.523 15.168h.169l5.543 56.408c1.398 14.047 14.861 25.016 28.648 25.016h141.535c13.767 0 27.253-10.996 28.648-25.016l5.544-56.408h.128c8.796 0 16.329-6.521 17.522-15.17.01-.068.018-.137.025-.205l1.808-16.432c1.061-9.638-13.849-11.283-14.91-1.641l-1.792 16.295c-.206 1.232-1.334 2.153-2.653 2.153h-210.214c-1.325 0-2.458-.93-2.656-2.171l-13.928-119.029c-.171-1.508 1.036-3.038 2.644-3.038h237.261c1.66 0 2.813 1.566 2.639 3.089l-6.937 63.057c-1.061 9.638 13.851 11.284 14.91 1.641l6.927-62.969c1.273-9.706-5.983-18.674-15.622-19.715l7.285-74.119h8.842c9.991 0 18.119-8.128 18.119-18.119v-14.737c-.001-16.147-11.475-29.664-26.698-32.832zm-37.77 293.944-5.384 54.778c-.984 6.649-6.866 11.646-13.736 11.646h-141.535c-6.87 0-12.752-4.998-13.736-11.646l-5.384-54.778zm-142.079-154.238c8.979-20.302 29.24-33.801 52.192-33.801s43.212 13.499 52.192 33.801zm157.238 0h-36.776c-9.788-29.011-37.062-48.801-68.271-48.801s-58.483 19.79-68.271 48.801h-36.775l-7.274-74.016h224.643zm34.308-92.135c0 1.72-1.399 3.119-3.119 3.119h-272.471c-1.72 0-3.119-1.399-3.119-3.119v-14.737c0-10.221 8.316-18.537 18.538-18.537h33.808c9.338 0 10.218-15.003 0-15.003h-25.375c3.516-18.31 19.655-32.186 38.975-32.186h146.818c19.319 0 35.459 13.876 38.975 32.186h-159.436c-9.338 0-10.218 15.003 0 15.003h167.868c10.222 0 18.538 8.316 18.538 18.537z"/><path d="m199.844 54.042c-3.066 2.958-7.7 7.429-7.7 15.832 0 4.142 3.357 7.5 7.5 7.5s7.5-3.358 7.5-7.5c0-1.856.551-2.562 3.115-5.037 9.699-9.356 9.759-22.249 0-31.663-3.886-3.748-3.887-6.322-.001-10.07 3.066-2.958 7.701-7.428 7.701-15.831 0-9.697-15-9.697-15 0 0 1.855-.55 2.561-3.114 5.035-9.7 9.354-9.759 22.248-.001 31.661 3.885 3.749 3.887 6.323 0 10.073z"/><path d="m250.679 54.041c-3.066 2.958-7.701 7.429-7.701 15.832 0 9.697 15 9.697 15 0 0-1.856.551-2.562 3.115-5.036 3.066-2.958 7.701-7.429 7.701-15.832s-4.635-12.874-7.701-15.832c-3.885-3.748-3.888-6.321-.001-10.069 3.067-2.958 7.702-7.428 7.702-15.831 0-9.697-15-9.697-15 0 0 1.855-.55 2.561-3.115 5.034-9.7 9.357-9.759 22.247 0 31.662 3.887 3.75 3.887 6.323 0 10.072z"/><path d="m301.514 54.042c-3.066 2.958-7.7 7.429-7.7 15.832 0 9.697 15 9.697 15 0 0-1.856.551-2.562 3.115-5.037 9.699-9.356 9.759-22.249 0-31.663-3.886-3.748-3.887-6.322-.001-10.07 3.066-2.958 7.701-7.428 7.701-15.831 0-9.697-15-9.697-15 0 0 1.855-.55 2.561-3.114 5.035-9.7 9.354-9.759 22.248-.001 31.661 3.886 3.749 3.888 6.323 0 10.073z"/><path d="m206.329 475.165h99.115c9.697 0 9.697-15 0-15h-99.115c-9.697 0-9.697 15 0 15z"/></g></svg>